<?xml version="1.0" standalone="no"?>
<!DOCTYPE svg PUBLIC "-//W3C//DTD SVG 20010904//EN"
 "http://www.w3.org/TR/2001/REC-SVG-20010904/DTD/svg10.dtd">
<svg class="logo-img" version="1.0" xmlns="http://www.w3.org/2000/svg"
 width="870.000000pt" height="1280.000000pt" viewBox="0 0 870.000000 1280.000000"
 preserveAspectRatio="xMidYMid meet">
<metadata>
Created by potrace 1.15, written by Peter Selinger 2001-2017
</metadata>
<g transform="translate(0.000000,1280.000000) scale(0.100000,-0.100000)"
fill="#000000" stroke="none">
<path fill="#2e2e2ee6" stroke="#fff" stroke-width="40" d="M3420 12791 c-249 -35 -439 -156 -523 -332 -47 -98 -70 -235 -57
-334 5 -38 9 -93 10 -122 0 -52 0 -52 -82 -135 -46 -46 -104 -96 -130 -113
-41 -26 -52 -41 -97 -135 -98 -206 -96 -195 -93 -592 3 -253 0 -358 -8 -385
-7 -21 -90 -200 -185 -398 -275 -572 -349 -763 -391 -1010 -18 -98 -15 -140
15 -310 33 -180 54 -235 117 -305 46 -51 83 -62 158 -50 115 19 236 95 327
205 23 28 114 128 202 224 188 201 168 204 187 -24 30 -381 40 -537 46 -730 6
-188 4 -233 -19 -430 -15 -121 -34 -283 -43 -360 -9 -77 -19 -261 -24 -410 -7
-268 -8 -271 -54 -500 -56 -274 -102 -468 -116 -496 -17 -31 -3 -56 56 -100
30 -22 60 -50 65 -62 11 -24 -9 -114 -132 -617 -105 -427 -213 -800 -259 -890
-31 -61 -51 -184 -44 -265 6 -68 4 -77 -24 -132 -60 -118 -95 -240 -98 -340
-2 -78 -9 -112 -49 -230 -51 -154 -121 -305 -187 -403 -76 -112 -837 -1385
-858 -1436 -23 -53 -29 -149 -11 -182 21 -39 12 -49 -96 -99 -177 -83 -163
-82 -370 -18 -323 102 -391 124 -450 151 -112 50 -223 40 -196 -17 18 -41 159
-198 337 -374 148 -148 188 -181 296 -250 208 -131 366 -205 441 -205 25 0 26
-2 22 -44 -3 -23 0 -53 6 -64 11 -20 353 -272 369 -272 11 0 104 98 133 139
39 59 204 364 324 603 74 147 204 375 368 645 359 592 527 887 576 1009 52
132 783 1629 815 1669 14 17 17 18 26 5 16 -24 254 -433 406 -695 110 -191
150 -251 195 -295 51 -49 62 -67 99 -165 77 -201 117 -328 150 -470 42 -185
66 -254 146 -421 37 -76 103 -213 146 -304 105 -218 298 -638 331 -722 15 -36
27 -75 27 -85 0 -23 -142 -268 -215 -373 -29 -41 -74 -95 -99 -121 -45 -45
-49 -46 -321 -129 -152 -46 -280 -89 -286 -97 -18 -21 -28 -81 -15 -92 18 -15
116 -48 178 -61 76 -15 515 -15 653 0 190 21 275 48 408 130 64 39 121 69 126
66 5 -3 22 -27 38 -52 l28 -46 60 4 c35 3 130 27 229 58 l168 54 -6 51 c-24
202 -144 793 -246 1202 -120 486 -203 738 -326 990 -99 203 -298 670 -456
1068 -11 28 -17 47 -14 44 3 -3 135 -194 292 -425 261 -383 285 -422 281 -452
-14 -81 31 -233 118 -407 81 -160 1457 -2278 1503 -2313 42 -32 152 -41 226
-18 l49 15 21 -27 c109 -140 142 -167 213 -178 54 -8 119 9 132 35 12 22 31
167 31 236 0 45 3 52 33 71 79 53 633 567 654 609 25 48 28 142 6 205 -13 38
-224 357 -701 1060 -625 919 -690 1012 -771 1092 -148 145 -312 239 -479 273
-90 19 -309 12 -407 -12 -121 -30 -250 -121 -326 -232 l-34 -49 -85 -4 c-47
-3 -86 -5 -86 -4 -1 0 -200 318 -441 706 l-440 706 -36 274 c-57 430 -69 546
-71 680 -1 112 1 129 21 167 24 45 66 83 92 83 41 0 98 25 129 56 32 32 34 37
29 91 -2 32 -25 155 -51 273 -94 429 -178 857 -183 935 -6 90 22 413 65 745
33 262 37 547 8 665 -34 142 -46 722 -17 863 16 82 -58 464 -129 667 -68 192
-121 271 -281 421 -243 228 -430 410 -475 461 -57 67 -119 205 -136 303 l-12
68 51 109 c67 142 117 297 139 423 14 88 15 115 5 189 -19 138 -49 239 -100
346 -58 118 -135 204 -227 250 -52 26 -70 30 -159 31 -55 1 -125 -1 -155 -5z
m-339 -1713 c95 -99 136 -173 122 -226 -3 -14 -56 -118 -118 -231 -62 -113
-124 -228 -138 -256 -23 -44 -26 -47 -27 -23 0 15 5 61 11 103 l10 76 -45 61
-45 61 39 44 c22 25 49 70 61 102 22 60 69 252 69 287 0 44 20 44 61 2z m2298
-7316 c226 -354 411 -646 411 -649 0 -10 -32 -43 -41 -43 -8 0 -692 1025 -743
1114 -15 25 -29 72 -36 121 -6 44 -14 89 -17 100 -3 13 -2 17 5 10 5 -5 194
-299 421 -653z"/>
</g>
</svg>
